<svg xmlns="http://www.w3.org/2000/svg" data-name="Layer 1" viewBox="0 0 100 125" x="0px" y="0px"><title>Arow1-50</title><path d="M50,2.5h0A47.5,47.5,0,0,0,2.5,50h0A47.5,47.5,0,0,0,50,97.5h0A47.5,47.5,0,0,0,97.5,50h0A47.5,47.5,0,0,0,50,2.5ZM73.35,54.17l-18,18a5.64,5.64,0,1,1-8-8L56,55.6H30.64a5.64,5.64,0,1,1,0-11.28H55.88L47.37,35.8a5.64,5.64,0,0,1,8-8l18,18A5.6,5.6,0,0,1,75,50v.18A5.62,5.62,0,0,1,73.35,54.17Z"/><text x="0" y="115" fill="#000000" font-size="5px" font-weight="bold" font-family="'Helvetica Neue', Helvetica, Arial-Unicode, Arial, Sans-serif">Created by Rainbow Designs</text><text x="0" y="120" fill="#000000" font-size="5px" font-weight="bold" font-family="'Helvetica Neue', Helvetica, Arial-Unicode, Arial, Sans-serif">from the Noun Project</text></svg>